<svg width="512" height="512" viewBox="0 0 164 164" version="1.1" xmlns="http://www.w3.org/2000/svg" xmlns:xlink="http://www.w3.org/1999/xlink" xml:space="preserve" xmlns:serif="http://www.serif.com/" style="fill-rule:evenodd;clip-rule:evenodd;stroke-linejoin:round;stroke-miterlimit:2;">
    <g transform="matrix(1,0,0,1,-0.395691,60.9992)">
        <path d="M23.955,41.374L42.027,23.84L42.023,23.84C49.145,16.935 52.036,15.886 65.618,15.886L119.784,15.886L135.37,0.628L63.563,0.628C45.385,0.628 40.245,2.359 29.583,12.911L0.903,41.374L23.955,41.374ZM65.944,18.323L117.459,18.323L103.172,32.609L66.212,32.609C59.438,32.609 57.94,32.928 54.578,36.289L49.493,41.374L28.118,41.374L43.92,25.572C50.126,19.371 52.265,18.323 65.944,18.323ZM163.888,0.628L123.031,41.374L97.765,41.374L138.511,0.628L163.888,0.628ZM136.987,40.084C137.836,40.945 138.906,41.374 140.192,41.374C141.478,41.374 142.534,40.945 143.371,40.092C144.207,39.239 144.623,38.182 144.623,36.926C144.623,35.669 144.202,34.613 143.362,33.751C142.522,32.889 141.461,32.461 140.175,32.461C138.889,32.461 137.823,32.889 136.979,33.742C136.134,34.596 135.709,35.652 135.709,36.909C135.709,38.165 136.134,39.222 136.987,40.084ZM137.518,34.256C138.231,33.526 139.113,33.161 140.166,33.161C141.223,33.161 142.106,33.526 142.815,34.256C143.523,34.986 143.88,35.873 143.88,36.917C143.88,37.961 143.523,38.844 142.815,39.57C142.102,40.296 141.223,40.657 140.166,40.657C139.109,40.657 138.226,40.292 137.518,39.562C136.809,38.832 136.452,37.949 136.452,36.909C136.452,35.869 136.809,34.986 137.518,34.256ZM139.296,39.4L139.296,37.652L139.3,37.656L140.298,37.656L141.142,39.405L142.174,39.405L141.244,37.528C141.558,37.384 141.779,37.197 141.911,36.964C142.042,36.731 142.106,36.374 142.106,35.894C142.106,35.415 141.944,35.054 141.622,34.816C141.299,34.574 140.815,34.456 140.175,34.456L138.316,34.456L138.316,39.4L139.296,39.4ZM139.279,36.883L139.279,35.219L140.09,35.219C140.79,35.219 141.138,35.495 141.138,36.051C141.138,36.344 141.07,36.557 140.934,36.688C140.803,36.82 140.582,36.883 140.276,36.883L139.279,36.883Z" style="fill:rgb(225,6,0);"/>
    </g>
</svg>
