<svg width="100%" hight="100%" fill="none" xmlns="http://www.w3.org/2000/svg">
            <g clip-path="url(#clip0_20_5270)">
              <path fill-rule="evenodd" clip-rule="evenodd" d="M13.5775 24L24.2225 13.6725H24.22C28.415 9.605 30.1175 8.9875 38.1175 8.9875H70.0225L79.2025 0H36.9075C26.2 0 23.1725 1.02 16.8925 7.235L0 24H13.5775ZM38.31 10.4225H68.6525L60.2375 18.8375H38.4675C34.4775 18.8375 33.595 19.025 31.615 21.005L28.62 24H16.03L25.3375 14.6925C28.9925 11.04 30.2525 10.4225 38.31 10.4225ZM96 0L71.935 24H57.0525L81.0525 0H96ZM80.1551 23.24C80.6551 23.7475 81.2851 24 82.0426 24C82.8001 24 83.4226 23.7475 83.9151 23.245C84.4076 22.7425 84.6525 22.12 84.6525 21.38C84.6525 20.64 84.4051 20.0175 83.9101 19.51C83.4151 19.0025 82.7901 18.75 82.0326 18.75C81.2751 18.75 80.6476 19.0025 80.1501 19.505C79.6526 20.0075 79.4025 20.63 79.4025 21.37C79.4025 22.11 79.6525 22.7325 80.1551 23.24ZM80.4676 19.8075C80.8876 19.3775 81.4075 19.1625 82.0275 19.1625C82.65 19.1625 83.1701 19.3775 83.5876 19.8075C84.0051 20.2375 84.215 20.76 84.215 21.375C84.215 21.99 84.0051 22.51 83.5876 22.9375C83.1676 23.365 82.65 23.5775 82.0275 23.5775C81.4051 23.5775 80.8851 23.3625 80.4676 22.9325C80.05 22.5025 79.84 21.9825 79.84 21.37C79.84 20.7575 80.05 20.2375 80.4676 19.8075ZM81.5151 22.8375V21.8075L81.5176 21.81H82.1051L82.6026 22.84H83.2101L82.6626 21.735C82.8475 21.65 82.9776 21.54 83.0551 21.4025C83.1326 21.265 83.1701 21.055 83.1701 20.7725C83.1701 20.49 83.0751 20.2775 82.8851 20.1375C82.6951 19.995 82.4101 19.925 82.0326 19.925H80.9376V22.8375H81.5151ZM81.5051 21.355V20.375H81.9826C82.3951 20.375 82.6001 20.5375 82.6001 20.865C82.6001 21.0375 82.5601 21.1625 82.4801 21.24C82.4026 21.3175 82.2726 21.355 82.0926 21.355H81.5051Z" fill="#E10600"></path>
            </g>
            <rect x="1600" y="10.545" width="1451.5" height="10.47" transform="rotate(180 1600 10.545)" fill="#E10600"></rect>
            <rect x="1600" y="24" width="1451.5" height="11.19" transform="rotate(180 1600 24)" fill="#E10600"></rect>
            <g clip-path="url(#clip1_20_5270)">
              <path d="M120.711 24H148.501V12.809H131.902L120.711 24Z" fill="#E10600"></path>
              <path d="M148.501 10.5469V0.083333H144.627L134.164 10.5469H148.501Z" fill="#E10600"></path>
            </g>
            <defs>
              <clipPath id="clip0_20_5270">
                <rect width="96" height="24" fill="white"></rect>
              </clipPath>
              <clipPath id="clip1_20_5270">
                <rect width="28.5015" height="24" fill="white" transform="matrix(-1 0 0 -1 148.501 24)"></rect>
              </clipPath>
            </defs>
</svg>